<svg xmlns="http://www.w3.org/2000/svg" xmlns:xlink="http://www.w3.org/1999/xlink" fill="none" version="1.1" width="36" height="36" viewBox="0 0 36 36"><defs><clipPath id="master_svg0_117_07563"><rect x="0" y="0" width="36" height="36" rx="0"/></clipPath><clipPath id="master_svg1_117_07563/2_095739"><rect x="0.75" y="0.75" width="34.5" height="34.499996185302734" rx="0"/></clipPath></defs><g clip-path="url(#master_svg0_117_07563)"><g clip-path="url(#master_svg1_117_07563/2_095739)"><g><g><path d="M0.75,12.96875C0.75,15.776852,1.9002593,18.316296,3.7553101,20.141617L15.894965,32.281271000000004C17.017723,33.404028,18.838072,33.404028,19.960829,32.281271000000004L32.07576,20.16634C33.945595,18.339263000000003,35.106285,15.789554,35.106285,12.96875C35.106285,7.4113841,30.601151,2.90625,25.043785,2.90625C22.264908,2.90625,19.749123,4.032691,17.928139,5.853869899999999C16.107159,4.0326906000000005,13.591377,2.90625,10.8125,2.90625C5.2551341,2.90625,0.75,7.4113841,0.75,12.96875Z" fill-rule="evenodd" fill="#CCCCCC" fill-opacity="1" style="mix-blend-mode:passthrough"/></g><g><ellipse cx="9.733398199081421" cy="11.890624761581421" rx="3.953124761581421" ry="3.953124761581421" fill="#FFFFFF" fill-opacity="0.699999988079071" style="mix-blend-mode:passthrough"/></g></g></g></g></svg>