<svg xmlns="http://www.w3.org/2000/svg" xmlns:xlink="http://www.w3.org/1999/xlink" fill="none" version="1.1" width="30.787879943847656" height="30.787879943847656" viewBox="0 0 30.787879943847656 30.787879943847656"><defs><clipPath id="master_svg0_131_12692"><rect x="0" y="0" width="30.787879943847656" height="30.787879943847656" rx="0"/></clipPath></defs><g clip-path="url(#master_svg0_131_12692)"><g><g><ellipse cx="15.393939971923828" cy="15.393939971923828" rx="15.393939971923828" ry="15.393939971923828" fill="#FFD30A" fill-opacity="1"/><path d="M30.78788,15.39394Q30.78788,15.771839,30.769337,16.149284Q30.750795,16.52673,30.713755,16.902809Q30.676714,17.278889,30.621265,17.652697Q30.565815,18.026506,30.492088,18.397146Q30.418364,18.767784,30.326542,19.134357Q30.23472,19.500935,30.125023,19.862562Q30.015324,20.22419,29.888014,20.579998Q29.7607,20.935808,29.616085,21.284943Q29.47147,21.634077,29.309896,21.975697Q29.148323,22.317314,28.970184,22.650593Q28.792042,22.98387,28.597763,23.308006Q28.403482,23.632141,28.193533,23.946352Q27.983582,24.260565,27.758465,24.564096Q27.533352,24.86763,27.293615,25.15975Q27.053879,25.451872,26.800098,25.731878Q26.546314,26.011883,26.279099,26.279099Q26.011883,26.546314,25.731878,26.800098Q25.451874,27.053879,25.159752,27.293615Q24.86763,27.533352,24.564098,27.758467Q24.260565,27.983582,23.946352,28.193531Q23.632141,28.403481,23.308004,28.597761Q22.983868,28.792042,22.650591,28.970182Q22.317312,29.148323,21.975695,29.309895Q21.634077,29.471468,21.284943,29.616083Q20.935808,29.7607,20.58,29.88801Q20.22419,30.015322,19.862564,30.125021Q19.500935,30.234718,19.134359,30.326542Q18.767784,30.418364,18.397146,30.492088Q18.026506,30.565815,17.652697,30.621265Q17.278889,30.676716,16.902809,30.713757Q16.52673,30.750795,16.149284,30.769339Q15.771839,30.78788,15.39394,30.78788Q15.01604,30.78788,14.638595,30.769337Q14.26115,30.750793,13.88507,30.713755Q13.508989,30.676714,13.13518,30.621265Q12.761369,30.565815,12.39073,30.492088Q12.020091,30.418364,11.653517,30.326542Q11.286942,30.23472,10.925316,30.125023Q10.563687,30.015324,10.207877,29.888014Q9.8520679,29.7607,9.5029335,29.616085Q9.1537991,29.47147,8.8121815,29.309896Q8.4705648,29.148323,8.1372871,28.970184Q7.8040085,28.792042,7.4798727,28.597763Q7.1557364,28.403482,6.8415241,28.193533Q6.5273118,27.983582,6.2237797,27.758465Q5.920248,27.533352,5.6281276,27.293615Q5.3360071,27.053879,5.0560017,26.800098Q4.7759962,26.546314,4.5087805,26.279099Q4.2415648,26.011883,3.9877827,25.731878Q3.7340007,25.451874,3.4942634,25.159752Q3.2545261,24.86763,3.0294113,24.564098Q2.8042965,24.260565,2.5943465,23.946352Q2.3843966,23.632141,2.1901171,23.308004Q1.9958378,22.983868,1.817697,22.650591Q1.6395562,22.317312,1.477983,21.975695Q1.3164098,21.634077,1.1717938,21.284943Q1.0271777,20.935808,0.89986712,20.58Q0.77255642,20.22419,0.66285789,19.862564Q0.5531593,19.500935,0.46133709,19.134359Q0.36951488,18.767784,0.29579023,18.397146Q0.2220656,18.026506,0.16661614,17.652697Q0.1111667,17.278889,0.074126028,16.902809Q0.037085347,16.52673,0.018542673,16.149284Q0,15.771839,0,15.39394Q0,15.01604,0.018542673,14.638595Q0.037085347,14.26115,0.074126028,13.88507Q0.1111667,13.508989,0.16661614,13.13518Q0.2220656,12.761369,0.29579023,12.39073Q0.36951488,12.020091,0.46133709,11.653517Q0.5531593,11.286942,0.66285789,10.925316Q0.77255642,10.563687,0.89986706,10.207877Q1.0271777,9.8520679,1.1717938,9.5029335Q1.3164098,9.1537991,1.477983,8.8121815Q1.6395562,8.4705648,1.817697,8.1372871Q1.9958378,7.8040085,2.1901171,7.4798727Q2.3843966,7.1557364,2.5943465,6.8415241Q2.8042965,6.5273118,3.0294113,6.2237797Q3.2545259,5.920248,3.4942632,5.6281276Q3.7340004,5.3360071,3.9877825,5.0560017Q4.2415648,4.7759962,4.5087805,4.5087805Q4.7759962,4.2415648,5.0560017,3.9877827Q5.3360071,3.7340007,5.6281276,3.4942634Q5.920248,3.2545261,6.2237797,3.0294113Q6.5273118,2.8042965,6.8415241,2.5943465Q7.1557364,2.3843966,7.4798722,2.1901171Q7.8040085,1.9958378,8.1372871,1.817697Q8.4705648,1.6395562,8.8121824,1.477983Q9.1537991,1.3164098,9.5029335,1.1717938Q9.8520679,1.0271777,10.207878,0.89986712Q10.563686,0.77255642,10.925315,0.66285789Q11.286942,0.5531593,11.653518,0.46133709Q12.020092,0.36951488,12.390731,0.29579023Q12.76137,0.2220656,13.13518,0.16661614Q13.508989,0.1111667,13.885071,0.074126028Q14.26115,0.037085347,14.638596,0.018542673Q15.01604,0,15.39394,0Q15.771839,0,16.149284,0.018542673Q16.52673,0.037085347,16.902809,0.074126028Q17.278889,0.1111667,17.652697,0.16661614Q18.026506,0.2220656,18.397146,0.29579023Q18.767784,0.36951488,19.134357,0.46133709Q19.500935,0.5531593,19.862562,0.66285789Q20.22419,0.77255642,20.579998,0.89986706Q20.935808,1.0271777,21.284943,1.1717938Q21.634077,1.3164098,21.975697,1.477983Q22.317314,1.6395562,22.650593,1.817697Q22.98387,1.9958378,23.308006,2.1901171Q23.632141,2.3843966,23.946352,2.5943465Q24.260565,2.8042965,24.564096,3.0294113Q24.86763,3.2545259,25.15975,3.4942632Q25.451872,3.7340004,25.731878,3.9877825Q26.011883,4.2415648,26.279099,4.5087805Q26.546314,4.7759962,26.800098,5.0560017Q27.053879,5.3360071,27.293615,5.6281276Q27.533352,5.920248,27.758467,6.2237797Q27.983582,6.5273118,28.193531,6.8415241Q28.403481,7.1557364,28.597761,7.4798722Q28.792042,7.8040085,28.970182,8.1372871Q29.148323,8.4705648,29.309895,8.8121824Q29.471468,9.1537991,29.616083,9.5029335Q29.7607,9.8520679,29.88801,10.207878Q30.015322,10.563686,30.125021,10.925315Q30.234718,11.286942,30.326542,11.653518Q30.418364,12.020092,30.492088,12.390731Q30.565815,12.76137,30.621265,13.13518Q30.676716,13.508989,30.713757,13.885071Q30.750797,14.26115,30.769339,14.638596Q30.78788,15.01604,30.78788,15.39394ZM28.222223,15.39394Q28.222223,15.079023,28.206772,14.764486Q28.191319,14.449949,28.160452,14.136549Q28.129585,13.823149,28.083376,13.511641Q28.037169,13.200132,27.975731,12.891266Q27.914293,12.5824,27.837774,12.27692Q27.761257,11.971442,27.669842,11.670086Q27.578426,11.368729,27.472332,11.072221Q27.36624,10.775713,27.245726,10.484768Q27.125212,10.193823,26.990566,9.9091415Q26.855923,9.6244602,26.707474,9.3467293Q26.559021,9.0689974,26.397121,8.7988844Q26.235222,8.5287704,26.060265,8.2669268Q25.885305,8.0050831,25.69771,7.75214Q25.510115,7.499197,25.310335,7.2557631Q25.110554,7.0123291,24.899069,6.7789912Q24.687584,6.5456533,24.464905,6.3229737Q24.242226,6.1002941,24.008886,5.8888092Q23.775551,5.6773238,23.532116,5.4775429Q23.288681,5.2777615,23.035738,5.0901661Q22.782795,4.9025707,22.52095,4.727612Q22.259106,4.5526533,21.988995,4.3907542Q21.71888,4.2288547,21.441149,4.0804043Q21.163416,3.9319534,20.878735,3.7973092Q20.594053,3.6626649,20.303108,3.5421515Q20.012165,3.421638,19.715656,3.315546Q19.419147,3.2094538,19.117792,3.1180384Q18.816437,3.0266228,18.510956,2.9501042Q18.205479,2.8735857,17.896612,2.8121483Q17.587748,2.750711,17.276241,2.7045033Q16.964733,2.6582956,16.651331,2.6274285Q16.337933,2.5965612,16.023394,2.5811088Q15.708857,2.5656567,15.39394,2.5656567Q15.079023,2.5656567,14.764486,2.581109Q14.449949,2.5965612,14.136549,2.6274285Q13.823149,2.6582956,13.511641,2.7045035Q13.200132,2.7507114,12.891266,2.8121486Q12.5824,2.8735857,12.27692,2.9501042Q11.971442,3.0266228,11.670086,3.1180384Q11.368729,3.2094538,11.072221,3.3155458Q10.775713,3.421638,10.484768,3.5421515Q10.193823,3.6626649,9.9091415,3.7973094Q9.6244602,3.9319534,9.3467293,4.0804043Q9.0689974,4.2288547,8.7988844,4.3907542Q8.5287704,4.5526533,8.2669268,4.727612Q8.0050831,4.9025707,7.75214,5.0901661Q7.499197,5.2777619,7.2557631,5.4775434Q7.0123291,5.6773243,6.7789912,5.8888092Q6.5456533,6.1002941,6.3229737,6.3229737Q6.1002941,6.5456533,5.8888092,6.7789912Q5.6773238,7.0123291,5.4775429,7.2557631Q5.2777615,7.499197,5.0901661,7.75214Q4.9025707,8.0050831,4.727612,8.2669268Q4.5526533,8.5287704,4.3907542,8.7988834Q4.2288547,9.0689974,4.0804043,9.3467293Q3.9319534,9.6244602,3.7973092,9.9091415Q3.6626649,10.193823,3.5421515,10.484768Q3.421638,10.775713,3.315546,11.07222Q3.2094538,11.368729,3.1180384,11.670086Q3.0266228,11.971442,2.9501042,12.27692Q2.8735857,12.5824,2.8121483,12.891266Q2.750711,13.200132,2.7045033,13.511641Q2.6582956,13.823149,2.6274285,14.136549Q2.5965612,14.449949,2.5811088,14.764486Q2.5656567,15.079023,2.5656567,15.39394Q2.5656567,15.708857,2.581109,16.023396Q2.5965612,16.337933,2.6274285,16.651331Q2.6582956,16.964733,2.7045035,17.276239Q2.7507114,17.587748,2.8121486,17.896612Q2.8735857,18.205479,2.9501042,18.510956Q3.0266228,18.816437,3.1180384,19.117794Q3.2094538,19.419149,3.3155458,19.715656Q3.421638,20.012165,3.5421515,20.303108Q3.6626649,20.594053,3.7973094,20.878735Q3.9319534,21.163416,4.0804043,21.441149Q4.2288547,21.71888,4.3907542,21.988991Q4.5526533,22.259106,4.727612,22.520948Q4.9025707,22.782791,5.0901661,23.035736Q5.2777619,23.288681,5.4775434,23.532114Q5.6773243,23.775549,5.8888092,24.008886Q6.1002941,24.242226,6.3229737,24.464905Q6.5456533,24.687584,6.7789912,24.899069Q7.0123291,25.110554,7.2557631,25.310335Q7.499197,25.510115,7.75214,25.69771Q8.0050831,25.885305,8.2669268,26.060265Q8.5287704,26.235222,8.7988834,26.397123Q9.0689974,26.559023,9.3467293,26.707476Q9.6244602,26.855925,9.9091415,26.990568Q10.193823,27.125212,10.484768,27.245726Q10.775713,27.36624,11.07222,27.472332Q11.368729,27.578426,11.670086,27.669842Q11.971442,27.761257,12.27692,27.837772Q12.5824,27.914291,12.891266,27.975729Q13.200132,28.037167,13.511641,28.083376Q13.823149,28.129583,14.136549,28.160452Q14.449949,28.191319,14.764486,28.20677Q15.079023,28.222221,15.39394,28.222223Q15.708857,28.222221,16.023396,28.20677Q16.337933,28.191319,16.651331,28.160452Q16.964733,28.129585,17.276239,28.083376Q17.587748,28.037169,17.896612,27.975731Q18.205479,27.914293,18.510956,27.837774Q18.816437,27.761257,19.117794,27.669842Q19.419149,27.578426,19.715656,27.472332Q20.012165,27.36624,20.303108,27.245726Q20.594053,27.125212,20.878735,26.990566Q21.163416,26.855923,21.441149,26.707474Q21.71888,26.559021,21.988991,26.397121Q22.259106,26.235222,22.520948,26.060265Q22.782791,25.885305,23.035736,25.69771Q23.288681,25.510115,23.532114,25.310335Q23.775549,25.110554,24.008886,24.899069Q24.242226,24.687584,24.464905,24.464905Q24.687584,24.242226,24.899069,24.008886Q25.110554,23.775551,25.310335,23.532116Q25.510115,23.288681,25.69771,23.035738Q25.885305,22.782795,26.060265,22.52095Q26.235222,22.259106,26.397123,21.988995Q26.559023,21.71888,26.707476,21.441149Q26.855925,21.163416,26.990568,20.878735Q27.125212,20.594053,27.245726,20.303108Q27.36624,20.012165,27.472332,19.715656Q27.578426,19.419147,27.669842,19.117792Q27.761257,18.816437,27.837772,18.510956Q27.914291,18.205479,27.975729,17.896612Q28.037167,17.587748,28.083376,17.276241Q28.129583,16.964733,28.160452,16.651331Q28.191319,16.337933,28.206772,16.023394Q28.222223,15.708857,28.222223,15.39394Z" fill="#FF9D00" fill-opacity="1"/></g><g><ellipse cx="21.16642999649048" cy="12.186937808990479" rx="1.9242424964904785" ry="1.9242424964904785" fill="#FF9D00" fill-opacity="1"/></g><g transform="matrix(0.7071068286895752,-0.7071067690849304,0.7071067690849304,0.7071068286895752,-6.38484088939731,7.065122403786518)" style="opacity:0.6000000238418579;"><ellipse cx="8.92959213256836" cy="13.503899812698364" rx="3.5936546325683594" ry="2.2641537189483643" fill="#FFFFFF" fill-opacity="1"/></g><g><ellipse cx="18.60197687149048" cy="21.16642999649048" rx="1.9242424964904785" ry="1.9242424964904785" fill="#FF9D00" fill-opacity="1"/></g><g><ellipse cx="10.904711246490479" cy="19.88371515274048" rx="1.9242424964904785" ry="1.9242424964904785" fill="#FF9D00" fill-opacity="1"/></g></g></g></svg>